<svg _ngcontent-ng-c1482587093="" viewBox="0 0 507.406 116.277" xml:space="preserve" xmlns="http://www.w3.org/2000/svg"><g _ngcontent-ng-c1482587093="" stroke-miterlimit="2" stroke-width="0"><path _ngcontent-ng-c1482587093="" d="M111.788 27.408C106.306 18.77 98.666 11.96 88.866 7.143 78.899 2.492 67.604 0 54.98 0H0v26.245H53.65c9.967 0 17.94 2.824 23.92 8.471 5.98 5.814 9.135 13.62 9.135 23.42 0 9.967-3.156 17.774-9.136 23.422-5.98 5.647-13.952 8.47-23.919 8.47H32.888V59.134H0v57.14h54.98c12.624 0 23.92-2.325 33.886-7.142 9.8-4.651 17.44-11.461 22.922-20.265 5.315-8.637 8.139-18.936 8.139-30.73 0-11.626-2.824-21.925-8.14-30.728zm137.22 0c-5.481-8.638-13.122-15.448-22.922-20.265C216.12 2.492 204.825 0 192.2 0h-54.98v26.245h53.65c9.967 0 17.94 2.824 23.92 8.471 5.98 5.814 9.136 13.62 9.136 23.42 0 9.967-3.156 17.774-9.136 23.422-5.98 5.647-13.953 8.47-23.92 8.47H170.11V59.134H137.22v57.14h54.98c12.625 0 23.92-2.325 33.886-7.142 9.8-4.651 17.44-11.461 22.922-20.265 5.316-8.637 8.14-18.936 8.14-30.73 0-11.626-2.824-21.925-8.14-30.728zm22.113 29.402v24.252h48.502V56.81ZM339.339 0v116.273h32.888V0Z" fill="#209680"></path><path
        _ngcontent-ng-c1482587093=""
        d="M431.33 12.297 423.025.005h-37.04l25.745 36.543zM480 78.24l-19.268 24.916 8.803 13.122h37.872zM504.749.005h-35.547l-85.045 116.273h37.54z"
        fill="#cf0"></path></g></svg>
